<svg width="13" height="13" viewBox="0 0 13 13" fill="none" xmlns="http://www.w3.org/2000/svg">
<path d="M6.74023 9.5C6.91023 9.5 7.05283 9.4424 7.16804 9.3272C7.28284 9.2124 7.34023 9.07 7.34023 8.9V7.1H9.15523C9.32523 7.1 9.46523 7.0424 9.57524 6.9272C9.68524 6.8124 9.74023 6.67 9.74023 6.5C9.74023 6.33 9.68263 6.1874 9.56743 6.0722C9.45263 5.9574 9.31024 5.9 9.14023 5.9H7.34023V4.085C7.34023 3.915 7.28284 3.775 7.16804 3.665C7.05283 3.555 6.91023 3.5 6.74023 3.5C6.57023 3.5 6.42783 3.5574 6.31303 3.6722C6.19783 3.7874 6.14023 3.93 6.14023 4.1V5.9H4.32523C4.15523 5.9 4.01523 5.9574 3.90523 6.0722C3.79523 6.1874 3.74023 6.33 3.74023 6.5C3.74023 6.67 3.79763 6.8124 3.91243 6.9272C4.02763 7.0424 4.17023 7.1 4.34023 7.1H6.14023V8.915C6.14023 9.085 6.19783 9.225 6.31303 9.335C6.42783 9.445 6.57023 9.5 6.74023 9.5ZM6.74023 12.5C5.91023 12.5 5.13023 12.3424 4.40023 12.0272C3.67023 11.7124 3.03523 11.285 2.49523 10.745C1.95523 10.205 1.52783 9.57 1.21303 8.84C0.897834 8.11 0.740234 7.33 0.740234 6.5C0.740234 5.67 0.897834 4.89 1.21303 4.16C1.52783 3.43 1.95523 2.795 2.49523 2.255C3.03523 1.715 3.67023 1.2874 4.40023 0.9722C5.13023 0.6574 5.91023 0.5 6.74023 0.5C7.57023 0.5 8.35023 0.6574 9.08023 0.9722C9.81023 1.2874 10.4452 1.715 10.9852 2.255C11.5252 2.795 11.9526 3.43 12.2674 4.16C12.5826 4.89 12.7402 5.67 12.7402 6.5C12.7402 7.33 12.5826 8.11 12.2674 8.84C11.9526 9.57 11.5252 10.205 10.9852 10.745C10.4452 11.285 9.81023 11.7124 9.08023 12.0272C8.35023 12.3424 7.57023 12.5 6.74023 12.5Z" fill="white"/>
</svg>
